<?xml version="1.0" encoding="UTF-8"?>
<svg width="24px" height="24px" viewBox="0 0 24 24" version="1.1" xmlns="http://www.w3.org/2000/svg">
    <path d="M22,5.8C21.2,6.1 20.4,6.3 19.5,6.4C20.4,5.9 21.1,5 21.4,4C20.6,4.5 19.7,4.8 18.8,5C18,4.1 16.9,3.6 15.7,3.6C13.5,3.6 11.7,5.4 11.7,7.6C11.7,7.9 11.7,8.2 11.8,8.5C8.3,8.3 5.1,6.7 3,4.3C2.6,4.9 2.4,5.6 2.4,6.3C2.4,7.7 3.2,9 4.3,9.7C3.6,9.7 2.9,9.5 2.3,9.1C2.3,9.1 2.3,9.1 2.3,9.2C2.3,11.1 3.7,12.7 5.5,13C5.2,13.1 4.8,13.1 4.4,13.1C4.1,13.1 3.8,13.1 3.6,13C4.1,14.6 5.6,15.7 7.4,15.7C5.9,16.7 4.1,17.4 2.1,17.4C1.7,17.4 1.4,17.4 1,17.3C2.8,18.4 4.9,19 7.2,19C15.7,19 20.3,12.2 20.3,6.2C20.3,6 20.3,5.9 20.3,5.7C21.2,5.1 21.9,4.4 22.5,3.5C21.7,3.8 20.9,4.1 20,4.2L22,5.8Z" fill="#1DA1F2"/>
</svg>
