<?xml version="1.0" encoding="UTF-8"?>
<svg width="24px" height="24px" viewBox="0 0 24 24" version="1.1" xmlns="http://www.w3.org/2000/svg">
    <path d="M12,2C6.477,2 2,6.477 2,12C2,13.85 2.487,15.551 3.336,17L2,22L7.063,20.687C8.481,21.509 10.172,22 12,22C17.523,22 22,17.523 22,12C22,6.477 17.523,2 12,2ZM12,20C10.354,20 8.832,19.54 7.523,18.762L7.286,18.617L4.349,19.347L5.089,16.473L4.923,16.223C4.079,14.881 3.6,13.467 3.6,12C3.6,7.364 7.364,3.6 12,3.6C16.636,3.6 20.4,7.364 20.4,12C20.4,16.636 16.636,20.4 12,20.4V20ZM16.625,14.778C16.425,14.678 15.258,14.105 15.075,14.039C14.892,13.972 14.758,13.939 14.625,14.139C14.492,14.339 14.039,14.878 13.922,15.012C13.805,15.145 13.689,15.162 13.489,15.062C13.289,14.962 12.525,14.72 11.622,13.912C10.922,13.288 10.439,12.512 10.322,12.312C10.205,12.112 10.308,12.005 10.408,11.905C10.497,11.815 10.605,11.669 10.705,11.552C10.805,11.435 10.839,11.352 10.905,11.219C10.972,11.085 10.939,10.969 10.889,10.869C10.839,10.769 10.359,9.6 10.192,9.2C10.029,8.812 9.862,8.866 9.739,8.859C9.625,8.852 9.492,8.852 9.359,8.852C9.225,8.852 9.009,8.902 8.825,9.102C8.642,9.302 8.035,9.875 8.035,11.044C8.035,12.213 8.909,13.347 9.009,13.481C9.109,13.614 10.435,15.647 12.451,16.679C12.949,16.892 13.339,17.019 13.642,17.115C14.142,17.275 14.599,17.252 14.959,17.202C15.359,17.145 16.292,16.639 16.459,16.172C16.625,15.705 16.625,15.305 16.575,15.219C16.525,15.132 16.392,15.085 16.192,14.985L16.625,14.778Z" fill="#25D366"/>
</svg>
